<svg width="40" height="40" viewBox="0 0 40 40" fill="none" xmlns="http://www.w3.org/2000/svg">
<path d="M31.13 16.1529C31.13 17.2854 29.7215 18.1819 29.3895 19.2039C29.0455 20.2634 29.6465 21.8139 29.0045 22.6954C28.3565 23.5859 26.692 23.4904 25.8015 24.1389C24.9195 24.7804 24.4995 26.3969 23.44 26.7409C22.418 27.0724 21.1325 26.0229 20 26.0229C18.8675 26.0229 17.582 27.0729 16.56 26.7404C15.5 26.3969 15.08 24.7804 14.1985 24.1384C13.3085 23.4904 11.6435 23.5859 10.995 22.6954C10.3535 21.8139 10.9545 20.2629 10.61 19.2039C10.2785 18.1819 8.87 17.2854 8.87 16.1529C8.87 15.0204 10.2785 14.1234 10.6105 13.1014C10.9545 12.0424 10.3535 10.4914 10.9955 9.60989C11.6435 8.71939 13.308 8.81489 14.1985 8.16689C15.0805 7.52489 15.5005 5.90889 16.56 5.56489C17.582 5.23289 18.8675 6.28289 20 6.28289C21.1325 6.28289 22.418 5.23289 23.44 5.56489C24.5 5.90889 24.92 7.52489 25.8015 8.16689C26.6915 8.81489 28.3565 8.71939 29.005 9.60989C29.6465 10.4919 29.0455 12.0424 29.39 13.1014C29.7215 14.1239 31.13 15.0199 31.13 16.1529Z" fill="#FCB316"/>
<path d="M20 23.6528C24.1421 23.6528 27.5 20.295 27.5 16.1528C27.5 12.0107 24.1421 8.65283 20 8.65283C15.8579 8.65283 12.5 12.0107 12.5 16.1528C12.5 20.295 15.8579 23.6528 20 23.6528Z" fill="#FFE081"/>
<path d="M20.4755 12.2298L21.186 14.4168C21.2187 14.5171 21.2823 14.6045 21.3677 14.6665C21.4531 14.7285 21.556 14.7618 21.6615 14.7618H23.9615C24.4455 14.7618 24.6465 15.3818 24.255 15.6668L22.395 17.0183C22.3095 17.0803 22.2458 17.1678 22.2131 17.2682C22.1804 17.3686 22.1804 17.4768 22.213 17.5773L22.9235 19.7643C23.0735 20.2248 22.546 20.6078 22.154 20.3233L20.294 18.9718C20.2085 18.9097 20.1056 18.8762 20 18.8762C19.8943 18.8762 19.7914 18.9097 19.706 18.9718L17.846 20.3233C17.454 20.6083 16.9265 20.2248 17.076 19.7643L17.787 17.5773C17.8196 17.4769 17.8196 17.3687 17.787 17.2683C17.7544 17.1679 17.6909 17.0804 17.6055 17.0183L15.745 15.6668C15.353 15.3818 15.5545 14.7618 16.039 14.7618H18.3385C18.4439 14.7617 18.5466 14.7283 18.6319 14.6663C18.7172 14.6044 18.7808 14.517 18.8135 14.4168L19.5245 12.2298C19.6745 11.7688 20.326 11.7688 20.4755 12.2298Z" fill="#FCB316"/>
<path d="M25.8015 24.1388C24.9195 24.7803 24.4995 26.3968 23.44 26.7408C22.634 27.0023 21.664 26.4058 20.7345 26.1418L24.645 34.4998L26.667 31.3453L30.3845 31.8138L26.614 23.7568C26.312 23.8543 26.031 23.9718 25.8015 24.1388ZM16.56 26.7403C15.5 26.3968 15.08 24.7803 14.1985 24.1383C13.969 23.9713 13.6875 23.8543 13.3855 23.7568L9.61548 31.8138L13.3325 31.3453L15.3545 34.4998L19.2655 26.1418C18.3355 26.4058 17.3655 27.0023 16.5595 26.7403H16.56Z" fill="#E53A35"/>
</svg>
