<svg width="32" height="32" viewBox="0 0 32 32" fill="none" xmlns="http://www.w3.org/2000/svg">
<path d="M13.5125 14.2345C15.1272 13.6963 16.8728 13.6963 18.4875 14.2345C18.7761 14.3307 19.0025 14.5572 19.0987 14.8458C19.6369 16.4604 19.6369 18.206 19.0987 19.8207C19.0025 20.1093 18.7761 20.3357 18.4875 20.4319C16.8728 20.9702 15.1272 20.9702 13.5125 20.4319C13.2239 20.3357 12.9975 20.1093 12.9013 19.8207C12.3631 18.206 12.3631 16.4604 12.9013 14.8458C12.9975 14.5572 13.2239 14.3307 13.5125 14.2345Z" fill="#111214"/>
<path fill-rule="evenodd" clip-rule="evenodd" d="M9.00942 7.99988C6.8335 7.99988 4.92121 9.44233 4.32343 11.5345L4.27143 11.7165C3.22603 15.3754 3.31054 19.2648 4.51389 22.8749C5.02426 24.406 6.28151 25.5703 7.84727 25.9617L8.19111 26.0477C13.3181 27.3294 18.6819 27.3294 23.8089 26.0477L24.1527 25.9617C25.7185 25.5703 26.9757 24.406 27.4861 22.8749C28.6895 19.2648 28.774 15.3754 27.7286 11.7165L27.6766 11.5345C27.0788 9.44233 25.1665 7.99988 22.9906 7.99988H22.2401C21.6844 7.99988 21.1763 7.68592 20.9278 7.18888L20.3235 5.98026C20.1164 5.56596 19.7531 5.25093 19.3137 5.10445C17.1627 4.38746 14.8373 4.38746 12.6863 5.10445C12.2469 5.25093 11.8836 5.56596 11.6765 5.98026L11.0722 7.18888C10.8236 7.68592 10.3156 7.99988 9.75994 7.99988H9.00942ZM19.3307 11.7047C17.1687 10.984 14.8313 10.984 12.6693 11.7047C11.5844 12.0663 10.7331 12.9176 10.3715 14.0025C9.65078 16.1645 9.65078 18.5019 10.3715 20.6639C10.7331 21.7488 11.5844 22.6001 12.6693 22.9618C14.8313 23.6824 17.1687 23.6824 19.3307 22.9618C20.4156 22.6001 21.2669 21.7488 21.6285 20.6639C22.3492 18.5019 22.3492 16.1645 21.6285 14.0025C21.2669 12.9176 20.4156 12.0663 19.3307 11.7047Z" fill="#111214"/>
</svg>
