<svg width="40" height="40" viewBox="0 0 40 40" fill="none" xmlns="http://www.w3.org/2000/svg">
<path d="M38.125 30.6875C38.125 31.6875 37.3125 32.5 36.3125 32.5H3.0625C2.0625 32.5 1.25 31.6875 1.25 30.6875V8.6875C1.25 7.6875 2.0625 6.875 3.0625 6.875H36.375C37.375 6.875 38.1875 7.6875 38.1875 8.6875V30.6875H38.125Z" fill="white"/>
<path d="M1.5625 8.75C1.5625 7.75 2.375 6.875 3.375 6.875H36.6875C37.6875 6.875 38.1875 7.875 38.1875 8.875V31.125C38.1875 32.125 37.5625 32.875 36.5625 32.875" fill="#E9F2F1"/>
<path d="M36.625 8.125C37.125 8.125 37.5 8.375 37.5 8.875V31.125C37.5 31.625 37.125 31.875 36.625 31.875H3.375C2.875 31.875 2.5 31.625 2.5 31.125V8.875C2.5 8.375 2.875 8.125 3.375 8.125H36.875M36.625 6.25H3.375C1.875 6.25 0.625 7.375 0.625 8.875V31.125C0.625 32.625 1.875 33.75 3.375 33.75H36.6875C38.1875 33.75 39.4375 32.625 39.4375 31.125V8.875C39.375 7.375 38.125 6.25 36.625 6.25Z" fill="#FFC166"/>
<path d="M36.625 6.25H21.25V33.75H36.625C38.125 33.75 39.375 32.625 39.375 31.125V8.875C39.375 7.375 38.125 6.25 36.625 6.25Z" fill="#FFC166"/>
<path d="M36.4889 8H21V23.3245L36.3 33C37.3074 33 38 32.2187 38 31.2572V9.92308C38 8.96154 37.4963 8 36.4889 8Z" fill="#FFD64F"/>
<path d="M29.9375 28.75L26.1875 25C25.6875 24.5 25.6875 23.75 26.1875 23.25C26.6875 22.75 27.4375 22.75 27.9375 23.25L29.9375 25.25L31.9375 23.25C32.4375 22.75 33.1875 22.75 33.6875 23.25C34.1875 23.75 34.1875 24.5 33.6875 25L29.9375 28.75ZM29.9375 11.25L33.6875 15C34.1875 15.5 34.1875 16.25 33.6875 16.75C33.1875 17.25 32.4375 17.25 31.9375 16.75L29.9375 14.75L27.9375 16.75C27.4375 17.25 26.6875 17.25 26.1875 16.75C25.6875 16.25 25.6875 15.5 26.1875 15L29.9375 11.25Z" fill="white"/>
<path d="M13.8125 18.625C13.125 18.25 12.25 18 11.375 18L11.5625 16.8125H14.625C14.9375 16.8125 14.9375 16.5625 14.9375 16.1875V15.125C14.9375 14.8125 14.9375 14.3125 14.625 14.3125H10.125C9.81251 14.3125 9.56251 14.625 9.50001 14.9375L8.87501 19.5625C8.87501 19.75 8.93751 19.9375 9.06251 20.0625C9.18751 20.1875 9.43751 20.25 9.62501 20.25C9.93751 20.1875 10.3125 20.1875 10.8125 20.1875C12.1875 20.1875 12.9375 20.6875 12.9375 21.6875C12.9375 22.6875 12.0625 23.125 11.3125 23.125C10.5625 23.125 9.87501 22.875 9.62501 22.6875C9.43751 22.5625 9.25001 22.5625 9.12501 22.625C9.00001 22.6875 8.81251 22.8125 8.75001 23L8.43751 24C8.37501 24.25 8.43751 24.5625 8.68751 24.6875C9.18751 25 10.1875 25.375 11.375 25.375C13.75 25.375 15.5 23.75 15.5 21.5625C15.4375 20.3125 14.875 19.25 13.8125 18.625Z" fill="#F56662"/>
</svg>
