<svg width="16" height="16" viewBox="0 0 16 16" fill="none" xmlns="http://www.w3.org/2000/svg">
<path d="M6.10077 8.72383C6.10077 8.54845 5.95852 8.40637 5.783 8.40637H4.6741C4.49879 8.40637 4.35651 8.54845 4.35651 8.72383V9.83258C4.35651 10.0082 4.49879 10.1503 4.6741 10.1503H5.783C5.95852 10.1503 6.10077 10.0082 6.10077 9.83258V8.72383ZM8.87206 8.72383C8.87206 8.54845 8.72978 8.40637 8.5546 8.40637H7.44556C7.27024 8.40637 7.12796 8.54845 7.12796 8.72383V9.83258C7.12796 10.0082 7.27024 10.1503 7.44556 10.1503H8.5546C8.72978 10.1503 8.87206 10.0082 8.87206 9.83258V8.72383ZM11.6435 8.72383C11.6435 8.54845 11.5012 8.40637 11.3259 8.40637H10.217C10.0415 8.40637 9.89922 8.54845 9.89922 8.72383V9.83258C9.89922 10.0082 10.0415 10.1503 10.217 10.1503H11.3259C11.5012 10.1503 11.6435 10.0082 11.6435 9.83258V8.72383ZM6.10077 11.4954C6.10077 11.3197 5.95852 11.1778 5.783 11.1778H4.6741C4.49879 11.1778 4.35651 11.3197 4.35651 11.4954V12.604C4.35651 12.7794 4.49879 12.9216 4.6741 12.9216H5.783C5.95852 12.9216 6.10077 12.7794 6.10077 12.604V11.4954ZM8.87206 11.4954C8.87206 11.3197 8.72978 11.1778 8.5546 11.1778H7.44556C7.27024 11.1778 7.12796 11.3197 7.12796 11.4954V12.604C7.12796 12.7794 7.27024 12.9216 7.44556 12.9216H8.5546C8.72978 12.9216 8.87206 12.7794 8.87206 12.604V11.4954ZM11.6435 11.4954C11.6435 11.3197 11.5012 11.1778 11.326 11.1778H10.217C10.0415 11.1778 9.89922 11.3197 9.89922 11.4954V12.604C9.89922 12.7794 10.0415 12.9216 10.217 12.9216H11.326C11.5012 12.9216 11.6435 12.7794 11.6435 12.604V11.4954Z" fill="#F97316"/>
<path d="M13.6263 2.55881V4.25235C13.6263 5.01781 13.0054 5.63465 12.24 5.63465H11.3655C10.6001 5.63465 9.97088 5.01781 9.97088 4.25235V2.55273H6.02914V4.25235C6.02914 5.01781 5.39997 5.63465 4.63468 5.63465H3.75998C2.99467 5.63465 2.37372 5.01781 2.37372 4.25235V2.55881C1.70483 2.57898 1.15518 3.13246 1.15518 3.81277V13.7377C1.15518 14.4308 1.71696 15 2.41006 15H13.59C14.282 15 14.8448 14.4296 14.8448 13.7377V3.81277C14.8448 3.13246 14.2952 2.57898 13.6263 2.55881ZM13.2201 13.1196C13.2201 13.4192 12.9773 13.6622 12.6776 13.6622H3.2985C2.99885 13.6622 2.75599 13.4192 2.75599 13.1196V7.99306C2.75599 7.69342 2.99882 7.45042 3.2985 7.45042H12.6776C12.9772 7.45042 13.2201 7.69342 13.2201 7.99306L13.2201 13.1196Z" fill="#F97316"/>
<path d="M3.75691 4.72678H4.62195C4.88451 4.72678 5.0974 4.5142 5.0974 4.25164V1.47531C5.0974 1.21272 4.88451 1 4.62195 1H3.75691C3.49432 1 3.28146 1.21272 3.28146 1.47531V4.25164C3.28146 4.5142 3.49432 4.72678 3.75691 4.72678ZM11.3544 4.72678H12.2194C12.4818 4.72678 12.6947 4.5142 12.6947 4.25164V1.47531C12.6947 1.21272 12.4818 1 12.2194 1H11.3544C11.0918 1 10.8789 1.21272 10.8789 1.47531V4.25164C10.8789 4.5142 11.0918 4.72678 11.3544 4.72678Z" fill="#F97316"/>
</svg>
