<svg width="40" height="40" viewBox="0 0 40 40" fill="none" xmlns="http://www.w3.org/2000/svg">
<path d="M36.875 2H27.875C27.254 2 26.75 2.504 26.75 3.125V9.875C26.75 10.496 27.254 11 27.875 11H36.875C37.496 11 38 10.496 38 9.875V3.125C38 2.504 37.496 2 36.875 2Z" fill="#FFD64F"/>
<path d="M33.5 35.75H12.125C11.504 35.75 11 35.246 11 34.625C11 34.004 11.504 33.5 12.125 33.5H33.5C34.742 33.5 35.75 32.492 35.75 31.25C35.75 30.008 34.742 29 33.5 29H22.25C19.7682 29 17.75 26.9818 17.75 24.5C17.75 22.0182 19.7682 20 22.25 20H25.625C26.246 20 26.75 20.504 26.75 21.125C26.75 21.746 26.246 22.25 25.625 22.25H22.25C21.0102 22.25 20 23.258 20 24.5C20 25.742 21.0102 26.75 22.25 26.75H33.5C35.9818 26.75 38 28.7682 38 31.25C38 33.7318 35.9818 35.75 33.5 35.75Z" fill="#DFDDDF"/>
<path d="M27.875 15.5C27.254 15.5 26.75 14.996 26.75 14.375V3.125C26.75 2.504 27.254 2 27.875 2C28.496 2 29 2.504 29 3.125V14.375C29 14.996 28.496 15.5 27.875 15.5Z" fill="#FFC166"/>
<path d="M9.875 38C11.739 38 13.25 36.489 13.25 34.625C13.25 32.761 11.739 31.25 9.875 31.25C8.01104 31.25 6.5 32.761 6.5 34.625C6.5 36.489 8.01104 38 9.875 38Z" fill="#B0BEC5"/>
<path d="M27.875 24.5C29.739 24.5 31.25 22.989 31.25 21.125C31.25 19.261 29.739 17.75 27.875 17.75C26.011 17.75 24.5 19.261 24.5 21.125C24.5 22.989 26.011 24.5 27.875 24.5Z" fill="#B0BEC5"/>
<path d="M9.875 8.75C5.5325 8.75 2 12.2825 2 16.625C2 20.666 8.318 27.8232 9.038 28.6265C9.25175 28.8627 9.5555 29 9.875 29C10.1945 29 10.4982 28.8627 10.712 28.6265C11.432 27.8232 17.75 20.666 17.75 16.625C17.75 12.2825 14.2175 8.75 9.875 8.75Z" fill="#FFD64F"/>
<path d="M9.875 20C11.739 20 13.25 18.489 13.25 16.625C13.25 14.761 11.739 13.25 9.875 13.25C8.01104 13.25 6.5 14.761 6.5 16.625C6.5 18.489 8.01104 20 9.875 20Z" fill="#FAFAFA"/>
</svg>
