<svg width="16" height="16" viewBox="0 0 16 16" fill="none" xmlns="http://www.w3.org/2000/svg">
<g clip-path="url(#clip0_237_648)">
<path d="M11.15 4.16875C12.3012 4.16875 13.2344 3.23554 13.2344 2.08437C13.2344 0.933206 12.3012 0 11.15 0C9.99882 0 9.06561 0.933206 9.06561 2.08437C9.06561 3.23554 9.99882 4.16875 11.15 4.16875Z" fill="#F97316"/>
<path d="M15.1844 10.7313L13.9969 6.07192C13.7844 5.24067 13.0375 4.65942 12.1812 4.65942H10.1187C9.2625 4.65942 8.5125 5.24067 8.30313 6.07192L7.11562 10.7313C6.94062 11.4219 7.4625 12.0938 8.175 12.0938H9.0625V15.0625C9.0625 15.5813 9.48125 16 10 16H12.2969C12.8156 16 13.2344 15.5813 13.2344 15.0625V12.0938H14.125C14.8375 12.0938 15.3594 11.4219 15.1844 10.7313ZM4.64062 4.66255H2.65625C1.62188 4.66255 0.78125 5.50317 0.78125 6.53755V9.9063C0.78125 10.3719 1.11875 10.7563 1.5625 10.8313V15.0625C1.5625 15.5813 1.98125 16 2.5 16H4.79688C5.31563 16 5.73438 15.5813 5.73438 15.0625V10.8313C6.17812 10.7563 6.51562 10.3719 6.51562 9.9063V6.53755C6.51562 5.50005 5.67813 4.66255 4.64062 4.66255Z" fill="#F97316"/>
<path d="M3.64999 4.16875C4.80116 4.16875 5.73436 3.23554 5.73436 2.08437C5.73436 0.933206 4.80116 0 3.64999 0C2.49882 0 1.56561 0.933206 1.56561 2.08437C1.56561 3.23554 2.49882 4.16875 3.64999 4.16875Z" fill="#F97316"/>
</g>
<defs>
<clipPath id="clip0_237_648">
<rect width="16" height="16" fill="white"/>
</clipPath>
</defs>
</svg>
