<svg width="40" height="40" viewBox="0 0 40 40" fill="none" xmlns="http://www.w3.org/2000/svg">
<path d="M36.001 36.5H21.001C20.6032 36.5 20.2216 36.342 19.9403 36.0607C19.659 35.7794 19.501 35.3978 19.501 35C19.501 34.6022 19.659 34.2206 19.9403 33.9393C20.2216 33.658 20.6032 33.5 21.001 33.5H36.001C36.3988 33.5 36.7803 33.658 37.0616 33.9393C37.3429 34.2206 37.501 34.6022 37.501 35C37.501 35.3978 37.3429 35.7794 37.0616 36.0607C36.7803 36.342 36.3988 36.5 36.001 36.5ZM36.001 21.5H21.001C20.6032 21.5 20.2216 21.342 19.9403 21.0607C19.659 20.7794 19.501 20.3978 19.501 20C19.501 19.6022 19.659 19.2206 19.9403 18.9393C20.2216 18.658 20.6032 18.5 21.001 18.5H36.001C36.3988 18.5 36.7803 18.658 37.0616 18.9393C37.3429 19.2206 37.501 19.6022 37.501 20C37.501 20.3978 37.3429 20.7794 37.0616 21.0607C36.7803 21.342 36.3988 21.5 36.001 21.5ZM36.001 6.5H21.001C20.6032 6.5 20.2216 6.34196 19.9403 6.06066C19.659 5.77936 19.501 5.39782 19.501 5C19.501 4.60218 19.659 4.22064 19.9403 3.93934C20.2216 3.65804 20.6032 3.5 21.001 3.5H36.001C36.3988 3.5 36.7803 3.65804 37.0616 3.93934C37.3429 4.22064 37.501 4.60218 37.501 5C37.501 5.39782 37.3429 5.77936 37.0616 6.06066C36.7803 6.34196 36.3988 6.5 36.001 6.5Z" fill="#F56662"/>
<path d="M13.8745 30.5H10.501V9.50003H13.8745C14.0934 9.49966 14.3075 9.43552 14.4905 9.31544C14.6736 9.19536 14.8177 9.02455 14.9052 8.8239C14.9927 8.62324 15.0199 8.40143 14.9833 8.18559C14.9468 7.96975 14.8482 7.76922 14.6995 7.60853L9.82452 2.35853C9.71886 2.24553 9.59111 2.15545 9.4492 2.09386C9.30728 2.03227 9.15423 2.00049 8.99952 2.00049C8.84482 2.00049 8.69177 2.03227 8.54985 2.09386C8.40794 2.15545 8.28019 2.24553 8.17452 2.35853L3.29952 7.60853C3.15125 7.76967 3.0528 7.97029 3.01607 8.18616C2.97934 8.40203 3.00589 8.62392 3.09252 8.82503C3.27252 9.23453 3.67752 9.50003 4.12452 9.50003H7.50102V30.5H4.12452C3.90555 30.5002 3.69137 30.5642 3.50812 30.684C3.32487 30.8039 3.18046 30.9745 3.09252 31.175C3.00589 31.3761 2.97934 31.598 3.01607 31.8139C3.0528 32.0298 3.15125 32.2304 3.29952 32.3915L8.17452 37.6415C8.28053 37.7539 8.40839 37.8435 8.55026 37.9047C8.69213 37.9659 8.84501 37.9975 8.99952 37.9975C9.15403 37.9975 9.30692 37.9659 9.44878 37.9047C9.59065 37.8435 9.71851 37.7539 9.82452 37.6415L14.6995 32.3915C14.8491 32.2312 14.9485 32.0305 14.9853 31.8143C15.0221 31.5981 14.9947 31.3758 14.9065 31.175C14.8187 30.9744 14.6744 30.8037 14.4911 30.6838C14.3078 30.5639 14.0935 30.5 13.8745 30.5Z" fill="#FFD64F"/>
<path d="M8.99952 2C8.84483 2.00032 8.69184 2.0323 8.54996 2.09395C8.40808 2.1556 8.28031 2.24563 8.17452 2.3585L3.29952 7.6085C3.15125 7.76964 3.0528 7.97026 3.01607 8.18613C2.97934 8.402 3.00589 8.62389 3.09252 8.825C3.27252 9.2345 3.67752 9.5 4.12452 9.5H7.50102V30.5H4.12452C3.90555 30.5002 3.69137 30.5641 3.50812 30.684C3.32487 30.8039 3.18046 30.9745 3.09252 31.175C3.00589 31.3761 2.97934 31.598 3.01607 31.8139C3.0528 32.0297 3.15125 32.2304 3.29952 32.3915L8.17452 37.6415C8.28031 37.7544 8.40808 37.8444 8.54996 37.9061C8.69184 37.9677 8.84483 37.9997 8.99952 38H9.00102L8.99952 2Z" fill="#FFC166"/>
<path d="M28.501 33.5H21.001C20.6032 33.5 20.2216 33.658 19.9403 33.9393C19.659 34.2206 19.501 34.6022 19.501 35C19.501 35.3978 19.659 35.7794 19.9403 36.0607C20.2216 36.342 20.6032 36.5 21.001 36.5H28.501V33.5ZM28.501 18.5H21.001C20.6032 18.5 20.2216 18.658 19.9403 18.9393C19.659 19.2206 19.501 19.6022 19.501 20C19.501 20.3978 19.659 20.7794 19.9403 21.0607C20.2216 21.342 20.6032 21.5 21.001 21.5H28.501V18.5ZM28.501 3.5H21.001C20.6032 3.5 20.2216 3.65804 19.9403 3.93934C19.659 4.22064 19.501 4.60218 19.501 5C19.501 5.39782 19.659 5.77936 19.9403 6.06066C20.2216 6.34196 20.6032 6.5 21.001 6.5H28.501V3.5Z" fill="#E53A35"/>
</svg>
