<svg width="22" height="22" viewBox="0 0 22 22" fill="none" xmlns="http://www.w3.org/2000/svg">
<path d="M20.453 21.3554H15.2968V0.644503H20.453V21.3554Z" fill="white" stroke="#131313" stroke-miterlimit="10" stroke-linecap="round" stroke-linejoin="round"/>
<path d="M15.2969 3.2655H16.5859Z" fill="white"/>
<path d="M15.2969 3.2655H16.5859" stroke="#131313" stroke-miterlimit="10" stroke-linecap="round" stroke-linejoin="round"/>
<path d="M15.2969 5.84363H17.4453Z" fill="white"/>
<path d="M15.2969 5.84363H17.4453" stroke="#131313" stroke-miterlimit="10" stroke-linecap="round" stroke-linejoin="round"/>
<path d="M15.2969 8.42175H16.5859Z" fill="white"/>
<path d="M15.2969 8.42175H16.5859" stroke="#131313" stroke-miterlimit="10" stroke-linecap="round" stroke-linejoin="round"/>
<path d="M15.2969 10.9999H17.4453Z" fill="white"/>
<path d="M15.2969 10.9999H17.4453" stroke="#131313" stroke-miterlimit="10" stroke-linecap="round" stroke-linejoin="round"/>
<path d="M15.2969 13.578H16.5859Z" fill="white"/>
<path d="M15.2969 13.578H16.5859" stroke="#131313" stroke-miterlimit="10" stroke-linecap="round" stroke-linejoin="round"/>
<path d="M15.2969 16.1561H17.4453Z" fill="white"/>
<path d="M15.2969 16.1561H17.4453" stroke="#131313" stroke-miterlimit="10" stroke-linecap="round" stroke-linejoin="round"/>
<path d="M15.2969 18.7343H16.5859Z" fill="white"/>
<path d="M15.2969 18.7343H16.5859" stroke="#131313" stroke-miterlimit="10" stroke-linecap="round" stroke-linejoin="round"/>
<mask id="mask0_237_664" style="mask-type:luminance" maskUnits="userSpaceOnUse" x="0" y="0" width="22" height="22">
<path d="M21.4999 21.4999V0.499973H0.5V21.4999H21.4999Z" fill="white" stroke="white"/>
</mask>
<g mask="url(#mask0_237_664)">
<path d="M4.55469 2.79291C4.55469 1.60638 5.51658 0.644484 6.70312 0.644484C7.88965 0.644484 8.85155 1.60638 8.85155 2.79291C8.85155 3.97945 7.88965 4.94135 6.70312 4.94135C5.51658 4.94135 4.55469 3.97945 4.55469 2.79291Z" fill="#F3F3F4" stroke="#131313" stroke-miterlimit="10" stroke-linecap="round" stroke-linejoin="round"/>
<path d="M1.54688 7.51948V11.9023C1.54688 12.6142 2.12403 13.1913 2.83593 13.1913C3.54784 13.1913 4.12499 12.6142 4.12499 11.9023V8.46479V20.0663C4.12499 20.7782 4.70215 21.3554 5.41405 21.3554C6.12596 21.3554 6.70311 20.7782 6.70311 20.0663C6.70311 20.7782 7.28026 21.3554 7.99217 21.3554C8.70407 21.3554 9.28123 20.7782 9.28123 20.0663V8.46479V11.9023C9.28123 12.6142 9.85838 13.1913 10.5703 13.1913C11.2822 13.1913 11.8593 12.6142 11.8593 11.9023V7.51948C11.8593 6.09563 10.7051 4.94136 9.28123 4.94136H4.12499C2.70114 4.94136 1.54688 6.09563 1.54688 7.51948Z" fill="#F3F3F4"/>
<path d="M6.70311 20.0663C6.70311 20.7782 6.12596 21.3554 5.41405 21.3554C4.70215 21.3554 4.12499 20.7782 4.12499 20.0663V8.46479V11.9023C4.12499 12.6142 3.54784 13.1913 2.83593 13.1913C2.12403 13.1913 1.54688 12.6142 1.54688 11.9023V7.51948C1.54688 6.09563 2.70114 4.94136 4.12499 4.94136H9.28123C10.7051 4.94136 11.8593 6.09563 11.8593 7.51948V11.9023C11.8593 12.6142 11.2822 13.1913 10.5703 13.1913C9.85838 13.1913 9.28123 12.6142 9.28123 11.9023V8.46479V20.0663C9.28123 20.7782 8.70407 21.3554 7.99217 21.3554C7.28026 21.3554 6.70311 20.7782 6.70311 20.0663ZM6.70311 20.0663V14.9101" stroke="#131313" stroke-miterlimit="10" stroke-linecap="round" stroke-linejoin="round"/>
<path d="M11.8594 0.644531H15.2969Z" fill="#F3F3F4"/>
<path d="M11.8594 0.644531H15.2969" stroke="#131313" stroke-miterlimit="10" stroke-linecap="round" stroke-linejoin="round"/>
</g>
</svg>
