<svg width="24" height="24" viewBox="0 0 24 24" fill="none" xmlns="http://www.w3.org/2000/svg">
<path d="M12.0836 18.3463C11.8273 18.3461 11.5755 18.2786 11.3535 18.1504L6.99997 15.6387C6.66377 15.444 6.41853 15.1239 6.31807 14.7486C6.21762 14.3733 6.27015 13.9735 6.46415 13.6369L7.09207 12.5485C7.42403 12.0866 7.85847 11.7078 8.36134 11.4418C8.86421 11.1758 9.42184 11.0299 9.99053 11.0156C10.0189 11.0106 10.0459 10.9995 10.0695 10.9829C10.0932 10.9664 10.1129 10.9448 10.1272 10.9198C10.1416 10.8948 10.1503 10.867 10.1527 10.8382C10.1552 10.8095 10.1512 10.7806 10.1412 10.7535C9.86879 10.2535 9.71597 9.69719 9.69476 9.12819C9.67355 8.55919 9.78454 7.99301 10.019 7.47413L10.6469 6.38574C10.8418 6.04996 11.1617 5.805 11.5366 5.70443C11.9116 5.60386 12.3111 5.65587 12.6479 5.84908L17.0014 8.36074C17.3376 8.55543 17.5829 8.87554 17.6833 9.25083C17.7838 9.62612 17.7312 10.0259 17.5372 10.3625L16.9093 11.4509C16.5773 11.9133 16.1426 12.2924 15.6394 12.5585C15.1362 12.8246 14.5782 12.9705 14.0092 12.9847C13.9807 12.9894 13.9537 13.0004 13.93 13.0168C13.9063 13.0332 13.8865 13.0547 13.8721 13.0797C13.8577 13.1047 13.849 13.1325 13.8466 13.1613C13.8443 13.19 13.8483 13.2189 13.8585 13.2459C14.1311 13.746 14.284 14.3025 14.3052 14.8717C14.3264 15.4408 14.2153 16.0072 13.9807 16.5262L13.3528 17.6146C13.2241 17.8372 13.039 18.022 12.8162 18.1505C12.5934 18.2789 12.3408 18.3464 12.0836 18.3463ZM11.9161 6.90984C11.8793 6.90977 11.8431 6.9194 11.8113 6.93778C11.7794 6.95615 11.7529 6.98261 11.7345 7.01449L11.1065 8.10288C10.9799 8.45603 10.9315 8.83248 10.9648 9.20617C10.998 9.57986 11.1121 9.94186 11.2991 10.2671C11.384 10.473 11.4205 10.6956 11.4057 10.9179C11.3909 11.1401 11.3253 11.356 11.2139 11.5488C11.1025 11.7417 10.9483 11.9064 10.7632 12.0302C10.5781 12.154 10.367 12.2337 10.1463 12.263C9.77121 12.2638 9.40081 12.346 9.06068 12.504C8.72054 12.662 8.41878 12.892 8.17627 13.1781L7.54835 14.2665C7.53453 14.2903 7.52553 14.3166 7.52188 14.3439C7.51822 14.3711 7.51999 14.3989 7.52706 14.4255C7.53414 14.4521 7.54639 14.477 7.56312 14.4989C7.57984 14.5207 7.60072 14.5391 7.62454 14.5528L11.9781 17.0645C12.0263 17.0916 12.0832 17.0988 12.1366 17.0844C12.19 17.07 12.2356 17.0352 12.2636 16.9875L12.8915 15.8991C13.0181 15.5459 13.0665 15.1695 13.0333 14.7958C13 14.4221 12.8859 14.0601 12.6989 13.7349C12.6139 13.529 12.5772 13.3064 12.5919 13.0842C12.6066 12.8619 12.6722 12.646 12.7836 12.4532C12.8951 12.2603 13.0494 12.0957 13.2346 11.972C13.4198 11.8483 13.631 11.7688 13.8518 11.7398C14.2268 11.7385 14.5971 11.656 14.9372 11.4979C15.2773 11.3397 15.5791 11.1098 15.8218 10.8239L16.4497 9.73546C16.4635 9.71167 16.4725 9.68538 16.4762 9.6581C16.4798 9.63082 16.4781 9.60309 16.471 9.5765C16.4639 9.5499 16.4517 9.52496 16.4349 9.50311C16.4182 9.48125 16.3973 9.46291 16.3735 9.44913L12.02 6.93747C11.9883 6.91949 11.9525 6.90997 11.9161 6.90984Z" fill="#F97316"/>
<path d="M20.3721 12.628C20.2056 12.628 20.0459 12.5619 19.9281 12.4441C19.8103 12.3263 19.7442 12.1666 19.7442 12.0001C19.7443 10.4684 19.2901 8.97099 18.4392 7.69737C17.5882 6.42374 16.3787 5.43107 14.9636 4.84488C13.5484 4.2587 11.9912 4.10534 10.4889 4.40419C8.98663 4.70304 7.60668 5.44068 6.52362 6.52383C6.264 6.78382 6.02285 7.06161 5.80194 7.35519C5.70202 7.48842 5.55326 7.5765 5.3884 7.60005C5.22354 7.6236 5.05608 7.5807 4.92285 7.48078C4.78963 7.38086 4.70155 7.23211 4.678 7.06725C4.65445 6.90239 4.69735 6.73492 4.79727 6.60169C5.05423 6.26218 5.33395 5.94051 5.63449 5.63889C6.89294 4.37991 8.49647 3.52238 10.2423 3.17476C11.9881 2.82713 13.7978 3.00501 15.4425 3.68591C17.0872 4.36681 18.4931 5.52015 19.4823 7.00007C20.4716 8.47998 20.9997 10.22 21 12.0001C21 12.1666 20.9339 12.3263 20.8161 12.4441C20.6984 12.5619 20.5386 12.628 20.3721 12.628ZM11.9999 21.0002C10.8179 21.0005 9.64747 20.7678 8.55543 20.3156C7.46338 19.8634 6.47113 19.2004 5.63534 18.3646C4.79956 17.5289 4.13662 16.5366 3.6844 15.4446C3.23218 14.3525 2.99954 13.1821 2.99976 12.0001C2.99976 11.8336 3.06591 11.6739 3.18367 11.5561C3.30143 11.4383 3.46114 11.3722 3.62767 11.3722C3.79421 11.3722 3.95392 11.4383 4.07168 11.5561C4.18943 11.6739 4.25559 11.8336 4.25559 12.0001C4.2555 13.5318 4.70965 15.0292 5.5606 16.3028C6.41155 17.5765 7.62107 18.5691 9.03621 19.1553C10.4514 19.7415 12.0085 19.8949 13.5108 19.596C15.0132 19.2972 16.3931 18.5595 17.4762 17.4764C17.7357 17.2168 17.9765 16.9393 18.197 16.6458C18.3002 16.5221 18.447 16.4427 18.607 16.424C18.7671 16.4054 18.9282 16.4489 19.0571 16.5455C19.186 16.6422 19.2729 16.7847 19.2998 16.9436C19.3267 17.1025 19.2916 17.2656 19.2017 17.3993C18.945 17.7394 18.6653 18.0614 18.3644 18.363C17.5306 19.2015 16.5387 19.8663 15.4463 20.3189C14.3538 20.7716 13.1824 21.0032 11.9999 21.0002Z" fill="#F97316"/>
<path d="M19.1038 19.7318C18.9372 19.7318 18.7775 19.6656 18.6598 19.5479C18.542 19.4301 18.4758 19.2704 18.4758 19.1039V17.3641H16.7353C16.5687 17.3641 16.409 17.298 16.2913 17.1802C16.1735 17.0625 16.1073 16.9028 16.1073 16.7362C16.1073 16.5697 16.1735 16.41 16.2913 16.2922C16.409 16.1745 16.5687 16.1083 16.7353 16.1083H19.1038C19.2703 16.1083 19.43 16.1745 19.5478 16.2922C19.6655 16.41 19.7317 16.5697 19.7317 16.7362V19.1039C19.7317 19.2704 19.6655 19.4301 19.5478 19.5479C19.43 19.6656 19.2703 19.7318 19.1038 19.7318ZM7.26377 7.89181H4.8961C4.72957 7.89181 4.56986 7.82565 4.4521 7.70789C4.33434 7.59014 4.26819 7.43042 4.26819 7.26389V4.89623C4.26819 4.72969 4.33434 4.56998 4.4521 4.45222C4.56986 4.33447 4.72957 4.26831 4.8961 4.26831C5.06264 4.26831 5.22235 4.33447 5.34011 4.45222C5.45787 4.56998 5.52402 4.72969 5.52402 4.89623V6.63597H7.26377C7.4303 6.63597 7.59001 6.70213 7.70777 6.81989C7.82553 6.93764 7.89168 7.09736 7.89168 7.26389C7.89168 7.43042 7.82553 7.59014 7.70777 7.70789C7.59001 7.82565 7.4303 7.89181 7.26377 7.89181Z" fill="#F97316"/>
</svg>
