<svg width="40" height="40" viewBox="0 0 40 40" fill="none" xmlns="http://www.w3.org/2000/svg">
<path d="M31.0266 0.888291L23.6541 16.5834H31.3744V16.5856C31.5316 16.5856 31.6889 16.6431 31.8107 16.7627C32.0565 17.0019 32.0609 17.3961 31.8218 17.642L10.2866 39.8104C10.1965 39.9035 10.0796 39.9662 9.95214 39.9896C9.82469 40.013 9.69311 39.996 9.57578 39.941C9.26578 39.7949 9.13063 39.425 9.2768 39.1127L17.163 22.3081H8.62344V22.3059C8.53485 22.3059 8.44625 22.286 8.35992 22.2461C8.04985 22.1022 7.91477 21.7301 8.06094 21.42L17.9293 0.412197C18.0156 0.173057 18.246 0.000244141 18.5162 0.000244141H30.4619V0.00243164C30.5531 0.00266924 30.6431 0.023107 30.7254 0.0622754C31.0377 0.206182 31.1728 0.578291 31.0266 0.888291Z" fill="#FFD64F"/>
<path fill-rule="evenodd" clip-rule="evenodd" d="M16.2639 33.6582L30.6877 18.8092L31.8216 17.642C32.0609 17.3962 32.0563 17.002 31.8105 16.7628C31.6887 16.6432 31.5315 16.5856 31.3742 16.5856L23.654 16.5834L31.0266 0.888369L31.0288 0.883916C31.1705 0.573838 31.0355 0.206182 30.7254 0.0622754C30.643 0.0231438 30.5531 0.002708 30.4619 0.00243164L28.9825 0.000244141L20.1462 18.8092H27.5829L10.5989 36.2937L9.2768 39.1129C9.13063 39.4252 9.2657 39.795 9.57578 39.9412C9.69311 39.9962 9.82469 40.0131 9.95213 39.9897C10.0796 39.9663 10.1965 39.9037 10.2866 39.8106L16.2639 33.6582Z" fill="#FFC166"/>
</svg>
