<svg width="15" height="15" viewBox="0 0 15 15" fill="none" xmlns="http://www.w3.org/2000/svg">
<path d="M0.625 2.49999V6.24999M0.625 6.24999H4.375M0.625 6.24999L3.525 3.52499C4.19672 2.85293 5.02773 2.36199 5.94051 2.09797C6.85328 1.83395 7.81806 1.80546 8.74482 2.01515C9.67158 2.22484 10.5301 2.66588 11.2403 3.29712C11.9505 3.92836 12.4893 4.72923 12.8062 5.62499M14.375 12.5V8.74999M14.375 8.74999H10.625M14.375 8.74999L11.475 11.475C10.8033 12.147 9.97227 12.638 9.05949 12.902C8.14672 13.166 7.18194 13.1945 6.25518 12.9848C5.32842 12.7751 4.46988 12.3341 3.75967 11.7028C3.04946 11.0716 2.51073 10.2707 2.19375 9.37499" stroke="white" stroke-linecap="round" stroke-linejoin="round"/>
</svg>
