<svg width="24" height="24" viewBox="0 0 24 24" fill="none" xmlns="http://www.w3.org/2000/svg">
<path d="M10.6 10.3C10.2 11.1 10.2 12 10.6 12.8C11.4 13.2 12.3 13.2 13.1 12.8C13.5 12 13.5 11.1 13.1 10.3C12.4 9.90001 11.4 9.90001 10.6 10.3Z" fill="#111214"/>
<path d="M19.8 12.5C19.8 12.2 19.9 11.9 19.9 11.6C19.9 11.3 19.9 11 19.8 10.7C19.9 10.6 20.1 10.5 20.2 10.3C20.6 9.90001 20.8 9.40001 20.8 8.80001C20.7 7.40001 20 6.00001 18.7 5.20001C18.2 4.90001 17.7 4.80001 17.1 5.00001C16.9 5.00001 16.8 5.10001 16.6 5.20001C16.1 4.80001 15.6 4.50001 15 4.30001C15 4.10001 14.9 4.00001 14.9 3.80001C14.8 3.30001 14.4 2.80001 13.9 2.60001C12.6 1.90001 11.1 1.90001 9.8 2.60001C9.3 2.70001 9 3.20001 8.8 3.70001C8.8 3.90001 8.7 4.00001 8.7 4.20001C8.2 4.50001 7.6 4.80001 7.2 5.10001C7 5.10001 6.8 5.00001 6.7 5.00001C6.1 4.80001 5.5 4.90001 5.1 5.20001C3.9 6.00001 3.1 7.40001 3 8.80001C3 9.40001 3.2 9.90001 3.6 10.3C3.7 10.4 3.8 10.5 4 10.7C4 11 3.9 11.3 3.9 11.6C3.9 11.9 3.9 12.2 4 12.5C3.9 12.6 3.7 12.7 3.6 12.9C3.2 13.2 3 13.8 3 14.3C3.1 15.8 3.9 17.1 5.1 17.9C5.6 18.2 6.1 18.3 6.7 18.1C6.8 18.1 7 18 7.2 18C7.7 18.4 8.2 18.7 8.8 18.9C8.8 19.1 8.9 19.2 8.9 19.4C9 19.9 9.4 20.4 9.9 20.6C11.2 21.3 12.7 21.3 14 20.6C14.5 20.3 14.9 19.9 15 19.4C15 19.2 15.1 19.1 15.1 18.9C15.7 18.7 16.2 18.4 16.7 18C16.9 18.1 17 18.1 17.2 18.2C17.7 18.4 18.3 18.3 18.8 18C20 17.2 20.8 15.9 20.9 14.4C20.9 13.8 20.7 13.3 20.3 12.9C20.1 12.7 20 12.6 19.8 12.5ZM14.9 13.7C14.7 14.1 14.4 14.4 14 14.6C13.3 14.9 12.6 15.1 11.8 15.1C11 15.1 10.3 14.9 9.6 14.6C9.2 14.4 8.9 14.1 8.7 13.7C8 12.3 8 10.7 8.7 9.40001C9.1 9.00001 9.4 8.70001 9.7 8.50001C11.1 7.80001 12.7 7.80001 14 8.50001C14.4 8.70001 14.7 9.00001 14.9 9.40001C15.6 10.8 15.6 12.4 14.9 13.7Z" fill="#111214"/>
</svg>
