<svg width="40" height="40" viewBox="0 0 40 40" fill="none" xmlns="http://www.w3.org/2000/svg">
<g clip-path="url(#clip0_143_472)">
<path d="M36.1291 21.9354C36.1291 11.9586 28.0413 3.87085 18.0645 3.87085C13.0762 3.87085 8.56 5.8928 5.29102 9.16179L5.06609 10.2968C2.29961 13.3844 0.617188 17.4634 0.617188 21.9354C0.617188 31.5712 8.42867 39.3827 18.0645 39.3827C22.4654 39.3827 26.4857 37.7533 29.5551 35.0649L30.838 34.7088C34.1071 31.4399 36.1291 26.9237 36.1291 21.9354Z" fill="#DBD8DB"/>
<path d="M16.5984 39.942C22.1639 40.3809 27.2516 38.2955 30.838 34.709C30.3405 34.2114 29.5463 34.1844 29.0134 34.6439C25.7592 37.4501 21.4155 39.0276 16.703 38.6558C8.57219 38.0145 1.98492 31.4269 1.34406 23.2962C0.972576 18.5838 2.55008 14.2405 5.35609 10.9866C5.81562 10.4537 5.78851 9.65952 5.29101 9.16194L5.29094 9.16187C1.70453 12.7483 -0.380862 17.8358 0.0578882 23.4011C0.748201 32.1573 7.84226 39.2515 16.5984 39.942Z" fill="#C9C5C9"/>
<path d="M18.0645 37.4195C26.616 37.4195 33.5484 30.4871 33.5484 21.9356C33.5484 13.384 26.616 6.45166 18.0645 6.45166C9.51295 6.45166 2.58057 13.384 2.58057 21.9356C2.58057 30.4871 9.51295 37.4195 18.0645 37.4195Z" fill="#ECEAEC"/>
<path d="M18.0645 36.129C25.9033 36.129 32.258 29.7743 32.258 21.9355C32.258 14.0966 25.9033 7.74194 18.0645 7.74194C10.2256 7.74194 3.87097 14.0966 3.87097 21.9355C3.87097 29.7743 10.2256 36.129 18.0645 36.129Z" fill="white"/>
<path d="M18.0645 24.516C19.4898 24.516 20.6451 23.3606 20.6451 21.9354C20.6451 20.5101 19.4898 19.3547 18.0645 19.3547C16.6393 19.3547 15.4839 20.5101 15.4839 21.9354C15.4839 23.3606 16.6393 24.516 18.0645 24.516Z" fill="#ECEAEC"/>
<path d="M18.0646 9.03223V34.8387C25.1908 34.8387 30.9678 29.0617 30.9678 21.9355C30.9678 14.8092 25.1908 9.03223 18.0646 9.03223Z" fill="#FFE077"/>
<path d="M18.0646 19.3547V24.5161C19.4898 24.5161 20.6452 23.3607 20.6452 21.9354C20.6452 20.5101 19.4898 19.3547 18.0646 19.3547Z" fill="#FFD05B"/>
<path d="M18.0646 30.9677C17.9799 30.9677 17.896 30.951 17.8177 30.9186C17.7394 30.8862 17.6683 30.8387 17.6083 30.7788C17.5484 30.7189 17.5009 30.6477 17.4685 30.5695C17.4361 30.4912 17.4194 30.4073 17.4194 30.3225V13.5483C17.4194 13.1921 17.708 12.9032 18.0646 12.9032C18.4212 12.9032 18.7097 13.1921 18.7097 13.5483V30.3225C18.7098 30.4073 18.6931 30.4912 18.6607 30.5695C18.6283 30.6477 18.5807 30.7189 18.5208 30.7788C18.4609 30.8387 18.3898 30.8862 18.3115 30.9186C18.2332 30.951 18.1493 30.9677 18.0646 30.9677ZM18.0646 34.8386C17.9799 34.8387 17.896 34.822 17.8177 34.7896C17.7394 34.7572 17.6683 34.7096 17.6083 34.6497C17.5484 34.5898 17.5009 34.5187 17.4685 34.4404C17.4361 34.3621 17.4194 34.2782 17.4194 34.1935V32.9032C17.4194 32.5469 17.708 32.258 18.0646 32.258C18.4212 32.258 18.7097 32.5469 18.7097 32.9032V34.1935C18.7098 34.2782 18.6931 34.3621 18.6607 34.4404C18.6283 34.5187 18.5807 34.5898 18.5208 34.6497C18.4609 34.7096 18.3898 34.7572 18.3115 34.7896C18.2332 34.822 18.1493 34.8387 18.0646 34.8386ZM18.0646 11.6129C17.9799 11.6129 17.896 11.5962 17.8177 11.5638C17.7394 11.5314 17.6683 11.4838 17.6083 11.4239C17.5484 11.364 17.5009 11.2929 17.4685 11.2146C17.4361 11.1363 17.4194 11.0524 17.4194 10.9677V9.67738C17.4194 9.32113 17.708 9.03223 18.0646 9.03223C18.4212 9.03223 18.7097 9.32113 18.7097 9.67738V10.9677C18.7098 11.0524 18.6931 11.1363 18.6607 11.2146C18.6283 11.2929 18.5807 11.364 18.5208 11.4239C18.4609 11.4838 18.3898 11.5314 18.3115 11.5638C18.2332 11.5962 18.1493 11.6129 18.0646 11.6129Z" fill="#FFC244"/>
<path d="M7.09685 22.5806H5.80653C5.44989 22.5806 5.16138 22.2917 5.16138 21.9354C5.16138 21.5792 5.44997 21.2903 5.80653 21.2903H7.09685C7.45349 21.2903 7.742 21.5792 7.742 21.9354C7.742 22.2917 7.45341 22.5806 7.09685 22.5806Z" fill="#9E959E"/>
<path d="M30.3226 22.5806H29.0322C28.6756 22.5806 28.3871 22.2917 28.3871 21.9354C28.3871 21.5792 28.6757 21.2903 29.0322 21.2903H30.3226C30.6792 21.2903 30.9677 21.5792 30.9677 21.9354C30.9677 22.2917 30.6792 22.5806 30.3226 22.5806Z" fill="#FFC244"/>
<path d="M24.1942 33.1965C24.0808 33.1966 23.9694 33.1668 23.8712 33.1102C23.7729 33.0536 23.6914 32.9721 23.6347 32.8739L22.9895 31.7565C22.8113 31.4481 22.9171 31.0534 23.2258 30.8751C23.5332 30.6965 23.9283 30.8024 24.1072 31.1114L24.7524 32.2287C24.9306 32.5372 24.8248 32.9318 24.5161 33.1101C24.4183 33.1668 24.3072 33.1966 24.1942 33.1965Z" fill="#FFEFAC"/>
<path d="M12.5813 13.0822C12.4679 13.0823 12.3565 13.0526 12.2583 12.9959C12.1601 12.9393 12.0785 12.8578 12.0218 12.7596L11.3767 11.6423C11.1984 11.3338 11.3042 10.9392 11.6129 10.7609C11.9203 10.5823 12.3154 10.6881 12.4943 10.9971L13.1395 12.1145C13.3178 12.4229 13.2119 12.8176 12.9032 12.9959C12.8054 13.0525 12.6943 13.0823 12.5813 13.0822ZM7.44963 28.7097C7.33625 28.7098 7.22485 28.6801 7.12663 28.6234C7.02842 28.5668 6.94686 28.4853 6.89017 28.3871C6.8478 28.3138 6.82029 28.2328 6.80923 28.1488C6.79817 28.0648 6.80377 27.9794 6.82571 27.8976C6.84765 27.8158 6.8855 27.7391 6.9371 27.6719C6.9887 27.6047 7.05303 27.5483 7.12642 27.506L8.24345 26.8609C8.55088 26.682 8.94658 26.7881 9.12486 27.0968C9.30314 27.4052 9.19728 27.7999 8.88861 27.9779L7.77158 28.6231C7.67382 28.6799 7.56272 28.7098 7.44963 28.7097Z" fill="#DBD8DB"/>
<path d="M27.5636 17.0968C27.4503 17.0969 27.3389 17.0671 27.2406 17.0105C27.1424 16.9539 27.0609 16.8724 27.0042 16.7742C26.9618 16.7008 26.9343 16.6198 26.9232 16.5359C26.9122 16.4519 26.9178 16.3665 26.9397 16.2847C26.9617 16.2029 26.9995 16.1262 27.0511 16.059C27.1027 15.9918 27.167 15.9354 27.2404 15.8931L28.3575 15.2479C28.6643 15.0684 29.06 15.1749 29.2389 15.4839C29.4172 15.7923 29.3113 16.187 29.0026 16.365L27.8856 17.0101C27.7878 17.067 27.6767 17.0969 27.5636 17.0968Z" fill="#FFEFAC"/>
<path d="M11.9349 33.1966C11.8218 33.1967 11.7107 33.1669 11.6129 33.1103C11.3041 32.932 11.1984 32.5372 11.3766 32.2289L12.0218 31.1115C12.0641 31.0381 12.1205 30.9737 12.1877 30.922C12.2549 30.8704 12.3316 30.8325 12.4135 30.8106C12.4954 30.7886 12.5808 30.783 12.6648 30.7941C12.7488 30.8052 12.8298 30.8328 12.9032 30.8753C13.212 31.0535 13.3177 31.4483 13.1395 31.7567L12.4943 32.874C12.4376 32.9722 12.3561 33.0537 12.2578 33.1103C12.1596 33.167 12.0482 33.1967 11.9349 33.1966Z" fill="#DBD8DB"/>
<path d="M23.5478 13.0822C23.4347 13.0823 23.3237 13.0525 23.2258 12.9959C22.9171 12.8176 22.8113 12.4228 22.9896 12.1145L23.6347 10.9971C23.8124 10.6881 24.2081 10.5823 24.5161 10.7609C24.8249 10.9392 24.9307 11.3339 24.7524 11.6423L24.1072 12.7596C24.0505 12.8578 23.969 12.9393 23.8708 12.996C23.7725 13.0526 23.6611 13.0823 23.5478 13.0822ZM28.6795 28.7097C28.5664 28.7098 28.4553 28.6799 28.3575 28.6231L27.2405 27.9779C27.1671 27.9356 27.1028 27.8793 27.0512 27.8121C26.9996 27.7449 26.9617 27.6682 26.9398 27.5863C26.9178 27.5045 26.9122 27.4192 26.9233 27.3352C26.9344 27.2512 26.9619 27.1702 27.0043 27.0968C27.1825 26.7881 27.5776 26.682 27.8857 26.8609L29.0027 27.506C29.0761 27.5484 29.1404 27.6047 29.192 27.6719C29.2436 27.7391 29.2815 27.8158 29.3034 27.8976C29.3254 27.9795 29.331 28.0648 29.3199 28.1488C29.3088 28.2328 29.2813 28.3138 29.2389 28.3871C29.1823 28.4853 29.1007 28.5668 29.0025 28.6235C28.9043 28.6801 28.7929 28.7098 28.6795 28.7097Z" fill="#FFEFAC"/>
<path d="M8.56544 17.0968C8.45234 17.097 8.34124 17.0671 8.24348 17.0102L7.12645 16.365C7.05305 16.3227 6.98871 16.2664 6.93711 16.1992C6.8855 16.132 6.84765 16.0553 6.82571 15.9734C6.80377 15.8916 6.79817 15.8063 6.80923 15.7223C6.8203 15.6383 6.84781 15.5573 6.8902 15.4839C7.06848 15.1749 7.46294 15.0684 7.77161 15.248L8.88864 15.8931C8.96204 15.9355 9.02638 15.9918 9.07798 16.059C9.12959 16.1262 9.16744 16.2029 9.18938 16.2847C9.21132 16.3666 9.21692 16.4519 9.20586 16.5359C9.19479 16.6199 9.16728 16.7009 9.12489 16.7742C9.0682 16.8724 8.98664 16.9539 8.88843 17.0106C8.79021 17.0672 8.67881 17.0969 8.56544 17.0968Z" fill="#DBD8DB"/>
<path d="M18.0645 23.2259C18.7771 23.2259 19.3548 22.6482 19.3548 21.9356C19.3548 21.223 18.7771 20.6453 18.0645 20.6453C17.3519 20.6453 16.7742 21.223 16.7742 21.9356C16.7742 22.6482 17.3519 23.2259 18.0645 23.2259Z" fill="#736572"/>
<path d="M24.7153 7.74195C24.7153 12.0177 27.9822 15.328 32.258 15.328C34.6197 15.328 36.7345 14.4263 38.1545 12.759C39.3053 11.4077 39.9999 9.65594 39.9999 7.74195C39.9999 3.46617 36.5338 0 32.258 0C30.3435 0 28.5914 0.694922 27.24 1.84617C25.5732 3.26625 24.7153 5.38062 24.7153 7.74195Z" fill="#FFD05B"/>
<path d="M33.1338 14.6081C28.858 14.6081 25.3919 11.1419 25.3919 6.86611C25.3919 4.95127 26.0883 3.19768 27.24 1.84619C25.5736 3.26619 24.516 5.38103 24.516 7.74189C24.516 12.0176 27.9822 15.4838 32.2579 15.4838C34.6189 15.4838 36.7344 14.4253 38.1544 12.759C36.803 13.9108 35.0486 14.6081 33.1338 14.6081Z" fill="#FFC244"/>
<path d="M29.8639 11.2027C28.8559 11.2027 27.9908 10.4504 27.8522 9.45307C27.8388 9.35958 27.832 9.26525 27.832 9.1708C27.832 8.81455 28.1206 8.52564 28.4772 8.52564C28.8337 8.52564 29.1223 8.81455 29.1223 9.1708C29.1223 9.20643 29.1255 9.24103 29.1299 9.2751C29.1803 9.63861 29.4959 9.91236 29.8639 9.91236C30.2728 9.91236 30.6055 9.57971 30.6055 9.1708C30.6055 8.76189 30.2728 8.42924 29.8639 8.42924C29.5073 8.42924 29.2187 8.14033 29.2187 7.78408C29.2187 7.42783 29.5073 7.13893 29.8639 7.13893C30.2728 7.13893 30.6055 6.80627 30.6055 6.39736C30.6055 5.98877 30.2728 5.65611 29.8639 5.65611C29.5105 5.65611 29.2042 5.90689 29.1369 6.25275C29.1207 6.33595 29.0882 6.41513 29.0413 6.48577C28.9945 6.5564 28.9342 6.6171 28.8638 6.66439C28.7935 6.71167 28.7145 6.74462 28.6314 6.76134C28.5483 6.77805 28.4627 6.77822 28.3795 6.76182C28.0298 6.69314 27.8018 6.35416 27.8705 6.00447C28.0563 5.05502 28.8949 4.36572 29.8639 4.36572C30.9841 4.36572 31.8958 5.27705 31.8958 6.39729C31.8958 6.93283 31.6873 7.4208 31.3477 7.784C31.6873 8.14721 31.8958 8.63518 31.8958 9.17072C31.8958 10.2913 30.9841 11.2027 29.8639 11.2027ZM34.9956 11.2496C33.7759 11.2496 32.7835 10.257 32.7835 9.03721V6.53127C32.7835 5.3115 33.7759 4.31885 34.9956 4.31885C36.216 4.31885 37.2084 5.3115 37.2084 6.53127V9.03729C37.2083 10.257 36.2159 11.2496 34.9956 11.2496ZM34.9956 5.60916C34.4872 5.60916 34.0739 6.02275 34.0739 6.53119V9.03721C34.0739 9.54564 34.4872 9.95924 34.9956 9.95924C35.5041 9.95924 35.918 9.54564 35.918 9.03721V6.53127C35.918 6.02283 35.5041 5.60916 34.9956 5.60916Z" fill="white"/>
</g>
<defs>
<clipPath id="clip0_143_472">
<rect width="40" height="40" fill="white"/>
</clipPath>
</defs>
</svg>
