<svg width="16" height="16" viewBox="0 0 16 16" fill="none" xmlns="http://www.w3.org/2000/svg">
<g clip-path="url(#clip0_237_706)">
<path d="M15.5326 12.5941L14.3474 5.88519C14.102 4.49659 12.9005 3.48875 11.4905 3.48875H9.81364C10.0672 3.12837 10.2166 2.68978 10.2166 2.21666C10.2167 0.994406 9.2222 0 7.99995 0C6.7777 0 5.78327 0.994406 5.78327 2.21669C5.78327 2.68981 5.93274 3.12841 6.18627 3.48878H4.50945C3.09939 3.48878 1.89786 4.49662 1.65252 5.88522L0.467267 12.5941C0.317673 13.4409 0.548861 14.3044 1.10149 14.9633C1.65414 15.6222 2.46427 16 3.32424 16H12.6757C13.5357 16 14.3458 15.6221 14.8985 14.9633C15.4511 14.3045 15.6822 13.4409 15.5326 12.5941ZM7.99995 0.944594C8.70139 0.944594 9.27205 1.51525 9.27205 2.21669C9.27205 2.91812 8.70136 3.48878 7.99995 3.48878C7.29855 3.48878 6.72786 2.91812 6.72786 2.21669C6.72786 1.51525 7.29852 0.944594 7.99995 0.944594ZM14.1747 14.3562C13.9913 14.5754 13.762 14.7516 13.503 14.8725C13.2439 14.9933 12.9615 15.0557 12.6757 15.0554H3.32424C2.7443 15.0554 2.19792 14.8006 1.82524 14.3562C1.45255 13.9119 1.29661 13.3295 1.39752 12.7584L2.58277 6.04956C2.74824 5.11309 3.55855 4.43334 4.50949 4.43334H11.4905C12.4415 4.43334 13.2518 5.11303 13.4172 6.0495L14.6025 12.7584C14.7034 13.3295 14.5474 13.9119 14.1747 14.3562Z" fill="#F97316"/>
<path d="M6.44688 9.7443L7.63041 8.52133C7.81182 8.33392 7.80688 8.03492 7.61944 7.85352C7.43197 7.67205 7.13297 7.67705 6.95157 7.86446L5.62797 9.23217V8.19289C5.62797 7.93205 5.41651 7.72058 5.15566 7.72058C4.89482 7.72058 4.68335 7.93205 4.68335 8.19289V11.2957C4.68335 11.5566 4.89482 11.7681 5.15566 11.7681C5.41651 11.7681 5.62797 11.5566 5.62797 11.2957V10.2565L6.95157 11.6242C6.99556 11.6698 7.0483 11.706 7.10663 11.7307C7.16496 11.7554 7.22768 11.7681 7.29104 11.7681C7.40929 11.7681 7.52772 11.7239 7.61944 11.6351C7.80688 11.4537 7.81176 11.1548 7.63041 10.9673L6.44688 9.7443ZM10.8443 9.40552H10.1353C9.87444 9.40552 9.66297 9.61699 9.66297 9.87783C9.66297 10.1387 9.87444 10.3501 10.1353 10.3501H10.3642C10.3192 10.6184 10.0853 10.8235 9.80444 10.8235C9.49151 10.8235 9.23691 10.5689 9.23691 10.256V9.2328C9.23691 8.91986 9.49151 8.66527 9.80444 8.66527C9.98051 8.66527 10.1437 8.74502 10.2523 8.88414C10.4128 9.08971 10.7096 9.12633 10.9152 8.96583C11.1208 8.8053 11.1574 8.50852 10.9969 8.30293C10.7081 7.93293 10.2735 7.72071 9.80447 7.72071C8.97069 7.72071 8.29235 8.39905 8.29235 9.23283V10.256C8.29235 11.0898 8.97069 11.7681 9.80447 11.7681C10.6383 11.7681 11.3166 11.0898 11.3166 10.256V9.87789C11.3166 9.61699 11.1051 9.40552 10.8443 9.40552Z" fill="#F97316"/>
</g>
<defs>
<clipPath id="clip0_237_706">
<rect width="16" height="16" fill="white"/>
</clipPath>
</defs>
</svg>
