<svg width="18" height="18" viewBox="0 0 18 18" fill="none" xmlns="http://www.w3.org/2000/svg">
<g clip-path="url(#clip0_237_699)">
<path d="M17.9787 1.34386C17.9397 0.628852 17.371 0.0602701 16.656 0.0212467C15.2133 -0.0575737 12.3901 0.0191022 9.69051 1.4154C8.31432 2.12725 6.85885 3.33413 5.69733 4.72659C5.68302 4.74375 5.6691 4.76101 5.65489 4.7782L3.01888 4.98183C2.58498 5.01537 2.19851 5.24279 1.95853 5.60575L0.160147 8.32586C-0.0218565 8.60113 -0.0507901 8.94563 0.0826982 9.24737C0.216222 9.54915 0.490581 9.75946 0.816655 9.80998L3.03751 10.1539C3.02967 10.1971 3.0218 10.2403 3.01459 10.2834C2.94066 10.7257 3.08719 11.1804 3.40662 11.4998L6.50008 14.5933C6.76492 14.8581 7.12277 15.0041 7.48945 15.0041C7.56552 15.0041 7.64146 14.9978 7.71649 14.9853C7.75966 14.9781 7.8028 14.9702 7.84597 14.9624L8.18994 17.1833C8.24046 17.5093 8.45076 17.7837 8.75248 17.9172C8.87548 17.9718 9.00855 18.0001 9.14313 18.0002C9.33201 18 9.51665 17.9442 9.67403 17.8398L12.3941 16.0414C12.7571 15.8014 12.9845 15.4149 13.018 14.981L13.2216 12.3451C13.2388 12.3309 13.2561 12.3169 13.2733 12.3026C14.6658 11.1411 15.8727 9.68563 16.5845 8.3094C17.9809 5.60972 18.0574 2.7865 17.9787 1.34386ZM11.8125 15.1616L9.21053 16.8819L8.87528 14.7175C9.97496 14.3941 11.0628 13.8763 12.0992 13.1826L11.9665 14.8998C11.9626 14.9523 11.9467 15.0032 11.92 15.0486C11.8933 15.094 11.8565 15.1327 11.8125 15.1616ZM7.24585 13.8475L4.15235 10.754C4.07342 10.6751 4.03693 10.5641 4.05483 10.4573C4.1468 9.90736 4.28971 9.38385 4.46661 8.89068L9.10822 13.5323C8.51591 13.7445 7.98537 13.871 7.54257 13.9451C7.43556 13.9628 7.32478 13.9265 7.24585 13.8475ZM3.10012 6.03339L4.8173 5.90074C4.12352 6.93711 3.60567 8.02495 3.28234 9.12464L1.11798 8.78943L2.83832 6.18744C2.86722 6.14341 2.90587 6.10662 2.95127 6.07991C2.99666 6.05319 3.0476 6.03728 3.10012 6.03339ZM12.5978 11.4927C11.7458 12.2033 10.9188 12.7173 10.1566 13.0892L4.91053 7.84313C5.39773 6.84806 5.99232 6.01947 6.50722 5.40219C7.58212 4.11354 8.91901 3.00186 10.1751 2.35218C12.6527 1.07063 15.2631 1.00161 16.5986 1.07432C16.6839 1.07886 16.7644 1.11478 16.8248 1.17515C16.8852 1.23552 16.9211 1.31609 16.9256 1.40134C16.9984 2.73686 16.9293 5.34721 15.6477 7.82484C14.9981 9.08091 13.8864 10.4178 12.5978 11.4927Z" fill="#9E9E9E"/>
<path d="M12.33 8.30545C13.0051 8.30538 13.6804 8.04839 14.1944 7.53444C14.6924 7.03645 14.9666 6.37432 14.9666 5.67007C14.9666 4.96582 14.6924 4.30369 14.1944 3.8057C13.1664 2.77762 11.4936 2.77769 10.4656 3.8057C9.96762 4.30369 9.69337 4.96582 9.69337 5.67007C9.69337 6.37432 9.96766 7.03645 10.4656 7.53444C10.9797 8.04849 11.6547 8.30552 12.33 8.30545ZM11.2113 4.55143C11.5197 4.24301 11.9248 4.08881 12.3299 4.08881C12.7351 4.08881 13.1402 4.24301 13.4486 4.55143C13.7474 4.85022 13.9119 5.24749 13.9119 5.67003C13.9119 6.09258 13.7474 6.48988 13.4486 6.78867C12.8318 7.40549 11.8281 7.40545 11.2113 6.78867C10.9125 6.48988 10.748 6.09261 10.748 5.67007C10.748 5.24753 10.9126 4.85022 11.2113 4.55143ZM0.537908 14.8338C0.672873 14.8338 0.807838 14.7823 0.910775 14.6793L2.63248 12.9576C2.83843 12.7517 2.83843 12.4178 2.63248 12.2118C2.42657 12.0059 2.09266 12.0059 1.88671 12.2118L0.165041 13.9335C-0.0409043 14.1395 -0.0409043 14.4734 0.165041 14.6793C0.213947 14.7284 0.272066 14.7673 0.336056 14.7938C0.400046 14.8203 0.468644 14.8339 0.537908 14.8338ZM4.21033 13.7897C4.00442 13.5837 3.67051 13.5837 3.46456 13.7897L0.154459 17.0998C-0.0514863 17.3058 -0.0514863 17.6396 0.154459 17.8456C0.257432 17.9486 0.392361 18 0.527326 18C0.662291 18 0.797256 17.9486 0.900193 17.8456L4.21029 14.5355C4.41628 14.3295 4.41628 13.9956 4.21033 13.7897ZM5.04241 15.3675L3.3207 17.0892C3.11476 17.2952 3.11476 17.6291 3.3207 17.835C3.42367 17.938 3.55864 17.9895 3.69357 17.9895C3.8285 17.9895 3.9635 17.938 4.06644 17.835L5.78814 16.1133C5.99409 15.9074 5.99409 15.5735 5.78814 15.3675C5.58223 15.1616 5.24832 15.1616 5.04241 15.3675Z" fill="#9E9E9E"/>
</g>
<defs>
<clipPath id="clip0_237_699">
<rect width="18" height="18" fill="white"/>
</clipPath>
</defs>
</svg>
